%TF.GenerationSoftware,KiCad,Pcbnew,9.0.6*%
%TF.CreationDate,2026-01-12T20:51:52-08:00*%
%TF.ProjectId,Board1,426f6172-6431-42e6-9b69-6361645f7063,rev?*%
%TF.SameCoordinates,Original*%
%TF.FileFunction,Paste,Top*%
%TF.FilePolarity,Positive*%
%FSLAX46Y46*%
G04 Gerber Fmt 4.6, Leading zero omitted, Abs format (unit mm)*
G04 Created by KiCad (PCBNEW 9.0.6) date 2026-01-12 20:51:52*
%MOMM*%
%LPD*%
G01*
G04 APERTURE LIST*
%ADD10O,0.300000X2.000000*%
%ADD11O,2.000000X0.300000*%
%ADD12R,0.280000X0.600000*%
%ADD13R,0.600000X0.280000*%
%ADD14O,2.015500X0.364000*%
%ADD15R,0.700000X1.800000*%
%ADD16R,0.250000X0.500000*%
%ADD17R,0.500000X0.250000*%
%ADD18O,0.364000X0.767000*%
G04 APERTURE END LIST*
D10*
%TO.C,U1*%
X118879750Y-100906500D03*
X119379750Y-100906500D03*
X119879750Y-100906500D03*
X120379750Y-100906500D03*
X120879750Y-100906500D03*
X121379750Y-100906500D03*
X121879750Y-100906500D03*
X122379750Y-100906500D03*
X122879750Y-100906500D03*
X123379750Y-100906500D03*
X123879750Y-100906500D03*
X124379750Y-100906500D03*
X124879750Y-100906500D03*
X125379750Y-100906500D03*
X125879750Y-100906500D03*
X126379750Y-100906500D03*
D11*
X128379750Y-98906500D03*
X128379750Y-98406500D03*
X128379750Y-97906500D03*
X128379750Y-97406500D03*
X128379750Y-96906500D03*
X128379750Y-96406500D03*
X128379750Y-95906500D03*
X128379750Y-95406500D03*
X128379750Y-94906500D03*
X128379750Y-94406500D03*
X128379750Y-93906500D03*
X128379750Y-93406500D03*
X128379750Y-92906500D03*
X128379750Y-92406500D03*
X128379750Y-91906500D03*
X128379750Y-91406500D03*
D10*
X126379750Y-89406500D03*
X125879750Y-89406500D03*
X125379750Y-89406500D03*
X124879750Y-89406500D03*
X124379750Y-89406500D03*
X123879750Y-89406500D03*
X123379750Y-89406500D03*
X122879750Y-89406500D03*
X122379750Y-89406500D03*
X121879750Y-89406500D03*
X121379750Y-89406500D03*
X120879750Y-89406500D03*
X120379750Y-89406500D03*
X119879750Y-89406500D03*
X119379750Y-89406500D03*
X118879750Y-89406500D03*
D11*
X116879750Y-91406500D03*
X116879750Y-91906500D03*
X116879750Y-92406500D03*
X116879750Y-92906500D03*
X116879750Y-93406500D03*
X116879750Y-93906500D03*
X116879750Y-94406500D03*
X116879750Y-94906500D03*
X116879750Y-95406500D03*
X116879750Y-95906500D03*
X116879750Y-96406500D03*
X116879750Y-96906500D03*
X116879750Y-97406500D03*
X116879750Y-97906500D03*
X116879750Y-98406500D03*
X116879750Y-98906500D03*
%TD*%
D12*
%TO.C,U4*%
X129761750Y-68374000D03*
X129261750Y-68374000D03*
X128761750Y-68374000D03*
X128261750Y-68374000D03*
X127761750Y-68374000D03*
D13*
X127419250Y-69216500D03*
X127419250Y-69716500D03*
X127419250Y-70216500D03*
D12*
X127761750Y-71059000D03*
X128261750Y-71059000D03*
X128761750Y-71059000D03*
X129261750Y-71059000D03*
X129761750Y-71059000D03*
D13*
X130104250Y-70216500D03*
X130104250Y-69716500D03*
X130104250Y-69216500D03*
%TD*%
D14*
%TO.C,U6*%
X149765250Y-83539000D03*
X149765250Y-84189000D03*
X149765250Y-84839000D03*
X149765250Y-85489000D03*
X149765250Y-86139000D03*
X149765250Y-86789000D03*
X149765250Y-87439000D03*
X149765250Y-88089000D03*
X149765250Y-88739000D03*
X149765250Y-89389000D03*
X149765250Y-90039000D03*
X149765250Y-90689000D03*
X149765250Y-91339000D03*
X149765250Y-91989000D03*
X156675250Y-91989000D03*
X156675250Y-91339000D03*
X156675250Y-90689000D03*
X156675250Y-90039000D03*
X156675250Y-89389000D03*
X156675250Y-88739000D03*
X156675250Y-88089000D03*
X156675250Y-87439000D03*
X156675250Y-86789000D03*
X156675250Y-86139000D03*
X156675250Y-85489000D03*
X156675250Y-84839000D03*
X156675250Y-84189000D03*
X156675250Y-83539000D03*
%TD*%
D15*
%TO.C,U5*%
X146886750Y-65269000D03*
X147986750Y-65269000D03*
X149086750Y-65269000D03*
X150186750Y-65269000D03*
X151286750Y-65269000D03*
X152386750Y-65269000D03*
X153486750Y-65269000D03*
X154586750Y-65269000D03*
X155686750Y-65269000D03*
X155686750Y-55669000D03*
X154586750Y-55669000D03*
X153486750Y-55669000D03*
X152386750Y-55669000D03*
X151286750Y-55669000D03*
X150186750Y-55669000D03*
X149086750Y-55669000D03*
X147986750Y-55669000D03*
X146886750Y-55669000D03*
%TD*%
D16*
%TO.C,U3*%
X116425000Y-58551000D03*
D17*
X116425000Y-57738000D03*
X116425000Y-57238000D03*
X116425000Y-56738000D03*
X116425000Y-56238000D03*
D16*
X116425000Y-55425000D03*
X115925000Y-55425000D03*
X115425000Y-55425000D03*
X114925000Y-55425000D03*
X114425000Y-55425000D03*
X113925000Y-55425000D03*
X113425000Y-55425000D03*
X112925000Y-55425000D03*
X112425000Y-55425000D03*
X111925000Y-55425000D03*
D17*
X111925000Y-56238000D03*
X111925000Y-56738000D03*
X111925000Y-57238000D03*
X111925000Y-57738000D03*
D16*
X111925000Y-58551000D03*
X112425000Y-58551000D03*
X112925000Y-58551000D03*
X113425000Y-58551000D03*
X113925000Y-58551000D03*
X114425000Y-58551000D03*
X114925000Y-58551000D03*
X115425000Y-58551000D03*
X115925000Y-58551000D03*
%TD*%
D18*
%TO.C,U2*%
X133095250Y-55729500D03*
X133745250Y-55729500D03*
X134395250Y-55729500D03*
X135045250Y-55729500D03*
X135045250Y-58246500D03*
X134395250Y-58246500D03*
X133745250Y-58246500D03*
X133095250Y-58246500D03*
%TD*%
M02*
