%TF.GenerationSoftware,KiCad,Pcbnew,9.0.3*%
%TF.CreationDate,2026-01-16T17:31:19-07:00*%
%TF.ProjectId,Board1,426f6172-6431-42e6-9b69-6361645f7063,rev?*%
%TF.SameCoordinates,Original*%
%TF.FileFunction,Soldermask,Top*%
%TF.FilePolarity,Negative*%
%FSLAX46Y46*%
G04 Gerber Fmt 4.6, Leading zero omitted, Abs format (unit mm)*
G04 Created by KiCad (PCBNEW 9.0.3) date 2026-01-16 17:31:19*
%MOMM*%
%LPD*%
G01*
G04 APERTURE LIST*
%ADD10C,1.524000*%
%ADD11O,0.300000X2.000000*%
%ADD12O,2.000000X0.300000*%
%ADD13R,0.280000X0.600000*%
%ADD14R,0.600000X0.280000*%
%ADD15O,2.015500X0.364000*%
%ADD16R,0.700000X1.800000*%
%ADD17R,0.250000X0.500000*%
%ADD18R,0.500000X0.250000*%
%ADD19O,0.364000X0.767000*%
G04 APERTURE END LIST*
D10*
%TO.C,*%
X142190250Y-103292500D03*
%TD*%
D11*
%TO.C,U1*%
X118879750Y-100906500D03*
X119379750Y-100906500D03*
X119879750Y-100906500D03*
X120379750Y-100906500D03*
X120879750Y-100906500D03*
X121379750Y-100906500D03*
X121879750Y-100906500D03*
X122379750Y-100906500D03*
X122879750Y-100906500D03*
X123379750Y-100906500D03*
X123879750Y-100906500D03*
X124379750Y-100906500D03*
X124879750Y-100906500D03*
X125379750Y-100906500D03*
X125879750Y-100906500D03*
X126379750Y-100906500D03*
D12*
X128379750Y-98906500D03*
X128379750Y-98406500D03*
X128379750Y-97906500D03*
X128379750Y-97406500D03*
X128379750Y-96906500D03*
X128379750Y-96406500D03*
X128379750Y-95906500D03*
X128379750Y-95406500D03*
X128379750Y-94906500D03*
X128379750Y-94406500D03*
X128379750Y-93906500D03*
X128379750Y-93406500D03*
X128379750Y-92906500D03*
X128379750Y-92406500D03*
X128379750Y-91906500D03*
X128379750Y-91406500D03*
D11*
X126379750Y-89406500D03*
X125879750Y-89406500D03*
X125379750Y-89406500D03*
X124879750Y-89406500D03*
X124379750Y-89406500D03*
X123879750Y-89406500D03*
X123379750Y-89406500D03*
X122879750Y-89406500D03*
X122379750Y-89406500D03*
X121879750Y-89406500D03*
X121379750Y-89406500D03*
X120879750Y-89406500D03*
X120379750Y-89406500D03*
X119879750Y-89406500D03*
X119379750Y-89406500D03*
X118879750Y-89406500D03*
D12*
X116879750Y-91406500D03*
X116879750Y-91906500D03*
X116879750Y-92406500D03*
X116879750Y-92906500D03*
X116879750Y-93406500D03*
X116879750Y-93906500D03*
X116879750Y-94406500D03*
X116879750Y-94906500D03*
X116879750Y-95406500D03*
X116879750Y-95906500D03*
X116879750Y-96406500D03*
X116879750Y-96906500D03*
X116879750Y-97406500D03*
X116879750Y-97906500D03*
X116879750Y-98406500D03*
X116879750Y-98906500D03*
%TD*%
D10*
%TO.C,*%
X104720250Y-110528000D03*
%TD*%
%TO.C,*%
X104722750Y-80043500D03*
%TD*%
%TO.C,*%
X142190250Y-97195000D03*
%TD*%
%TO.C,*%
X118244000Y-52250500D03*
%TD*%
%TO.C,*%
X142190250Y-82964000D03*
%TD*%
%TO.C,*%
X145186750Y-52106000D03*
%TD*%
%TO.C,*%
X155355750Y-52106000D03*
%TD*%
%TO.C,*%
X104720250Y-86134000D03*
%TD*%
%TO.C,*%
X161474750Y-99899500D03*
%TD*%
%TO.C,*%
X151290750Y-52106000D03*
%TD*%
%TO.C,*%
X123645750Y-110780000D03*
%TD*%
%TO.C,*%
X111451750Y-110777500D03*
%TD*%
%TO.C,*%
X104720250Y-88166000D03*
%TD*%
%TO.C,*%
X112133500Y-62004500D03*
%TD*%
%TO.C,*%
X126107500Y-58140500D03*
%TD*%
%TO.C,*%
X104720250Y-100367000D03*
%TD*%
%TO.C,*%
X124346000Y-62004500D03*
%TD*%
%TO.C,*%
X142190250Y-84996000D03*
%TD*%
%TO.C,*%
X128797250Y-73717000D03*
%TD*%
%TO.C,*%
X142190250Y-91091500D03*
%TD*%
%TO.C,*%
X159418750Y-52106000D03*
%TD*%
%TO.C,*%
X145183250Y-68978000D03*
%TD*%
%TO.C,*%
X124353000Y-52250500D03*
%TD*%
%TO.C,*%
X107514750Y-76995500D03*
%TD*%
%TO.C,*%
X159414750Y-68978000D03*
%TD*%
%TO.C,*%
X133806250Y-110780000D03*
%TD*%
%TO.C,*%
X129869250Y-76998000D03*
%TD*%
%TO.C,*%
X111572750Y-76998000D03*
%TD*%
%TO.C,*%
X104269000Y-54067000D03*
%TD*%
%TO.C,*%
X161474750Y-95834000D03*
%TD*%
%TO.C,*%
X151286750Y-68978000D03*
%TD*%
%TO.C,*%
X134572250Y-71821500D03*
%TD*%
%TO.C,*%
X149252250Y-52106000D03*
%TD*%
%TO.C,*%
X113479250Y-110780000D03*
%TD*%
%TO.C,*%
X142190250Y-80930500D03*
%TD*%
%TO.C,*%
X127838750Y-76998000D03*
%TD*%
%TO.C,*%
X113604750Y-76998000D03*
%TD*%
%TO.C,*%
X132825750Y-65906500D03*
%TD*%
%TO.C,*%
X119708750Y-76998000D03*
%TD*%
%TO.C,*%
X142190250Y-89059500D03*
%TD*%
%TO.C,*%
X114172000Y-62004500D03*
%TD*%
%TO.C,*%
X131276250Y-52416000D03*
%TD*%
%TO.C,*%
X109542250Y-76998000D03*
%TD*%
%TO.C,*%
X122982250Y-67812000D03*
%TD*%
%TO.C,*%
X104720250Y-92231000D03*
%TD*%
%TO.C,*%
X145208750Y-81663500D03*
%TD*%
%TO.C,*%
X116204000Y-62004500D03*
%TD*%
%TO.C,*%
X118237000Y-62004500D03*
%TD*%
%TO.C,*%
X133934750Y-76998000D03*
%TD*%
%TO.C,*%
X117670250Y-76998000D03*
%TD*%
%TO.C,*%
X104720250Y-94269500D03*
%TD*%
%TO.C,*%
X137372250Y-52416000D03*
%TD*%
%TO.C,*%
X117541750Y-110780000D03*
%TD*%
%TO.C,*%
X157384250Y-68978000D03*
%TD*%
%TO.C,*%
X135300250Y-62309500D03*
%TD*%
%TO.C,*%
X157387750Y-52106000D03*
%TD*%
%TO.C,*%
X129742750Y-110780000D03*
%TD*%
D13*
%TO.C,U4*%
X129761750Y-68374000D03*
X129261750Y-68374000D03*
X128761750Y-68374000D03*
X128261750Y-68374000D03*
X127761750Y-68374000D03*
D14*
X127419250Y-69216500D03*
X127419250Y-69716500D03*
X127419250Y-70216500D03*
D13*
X127761750Y-71059000D03*
X128261750Y-71059000D03*
X128761750Y-71059000D03*
X129261750Y-71059000D03*
X129761750Y-71059000D03*
D14*
X130104250Y-70216500D03*
X130104250Y-69716500D03*
X130104250Y-69216500D03*
%TD*%
D10*
%TO.C,*%
X135966750Y-76998000D03*
%TD*%
%TO.C,*%
X104720250Y-108496000D03*
%TD*%
%TO.C,*%
X106043000Y-52250500D03*
%TD*%
%TO.C,*%
X125805750Y-76998000D03*
%TD*%
%TO.C,*%
X139903750Y-110780000D03*
%TD*%
%TO.C,*%
X122982250Y-69834500D03*
%TD*%
%TO.C,*%
X161474750Y-97866000D03*
%TD*%
%TO.C,*%
X153322750Y-52106000D03*
%TD*%
%TO.C,*%
X145208750Y-87766000D03*
%TD*%
%TO.C,*%
X155352250Y-68978000D03*
%TD*%
%TO.C,*%
X104269000Y-60163000D03*
%TD*%
%TO.C,*%
X104722750Y-82075500D03*
%TD*%
%TO.C,*%
X147220250Y-52106000D03*
%TD*%
%TO.C,*%
X161474750Y-81603000D03*
%TD*%
D15*
%TO.C,U6*%
X149765250Y-83539000D03*
X149765250Y-84189000D03*
X149765250Y-84839000D03*
X149765250Y-85489000D03*
X149765250Y-86139000D03*
X149765250Y-86789000D03*
X149765250Y-87439000D03*
X149765250Y-88089000D03*
X149765250Y-88739000D03*
X149765250Y-89389000D03*
X149765250Y-90039000D03*
X149765250Y-90689000D03*
X149765250Y-91339000D03*
X149765250Y-91989000D03*
X156675250Y-91989000D03*
X156675250Y-91339000D03*
X156675250Y-90689000D03*
X156675250Y-90039000D03*
X156675250Y-89389000D03*
X156675250Y-88739000D03*
X156675250Y-88089000D03*
X156675250Y-87439000D03*
X156675250Y-86789000D03*
X156675250Y-86139000D03*
X156675250Y-85489000D03*
X156675250Y-84839000D03*
X156675250Y-84189000D03*
X156675250Y-83539000D03*
%TD*%
D10*
%TO.C,*%
X114178500Y-52250500D03*
%TD*%
%TO.C,*%
X145208750Y-85734000D03*
%TD*%
%TO.C,*%
X104720250Y-104430500D03*
%TD*%
%TO.C,*%
X142190250Y-87026500D03*
%TD*%
%TO.C,*%
X110101500Y-62004500D03*
%TD*%
%TO.C,*%
X132857250Y-73717000D03*
%TD*%
%TO.C,*%
X142190250Y-78898500D03*
%TD*%
%TO.C,*%
X119575250Y-110780000D03*
%TD*%
%TO.C,*%
X142187750Y-109382500D03*
%TD*%
%TO.C,*%
X145208750Y-79630500D03*
%TD*%
%TO.C,*%
X145208750Y-89799500D03*
%TD*%
%TO.C,*%
X122300000Y-62004500D03*
%TD*%
%TO.C,*%
X126107500Y-60163000D03*
%TD*%
%TO.C,*%
X115638250Y-76998000D03*
%TD*%
%TO.C,*%
X137871750Y-110780000D03*
%TD*%
%TO.C,*%
X143154750Y-52106000D03*
%TD*%
%TO.C,*%
X126107500Y-54067000D03*
%TD*%
%TO.C,*%
X106036000Y-62004500D03*
%TD*%
%TO.C,*%
X142187750Y-107350500D03*
%TD*%
%TO.C,*%
X104269000Y-58140500D03*
%TD*%
D16*
%TO.C,U5*%
X146886750Y-65269000D03*
X147986750Y-65269000D03*
X149086750Y-65269000D03*
X150186750Y-65269000D03*
X151286750Y-65269000D03*
X152386750Y-65269000D03*
X153486750Y-65269000D03*
X154586750Y-65269000D03*
X155686750Y-65269000D03*
X155686750Y-55669000D03*
X154586750Y-55669000D03*
X153486750Y-55669000D03*
X152386750Y-55669000D03*
X151286750Y-55669000D03*
X150186750Y-55669000D03*
X149086750Y-55669000D03*
X147986750Y-55669000D03*
X146886750Y-55669000D03*
%TD*%
D10*
%TO.C,*%
X145208750Y-101992500D03*
%TD*%
%TO.C,*%
X135838250Y-110780000D03*
%TD*%
%TO.C,*%
X145208750Y-77598500D03*
%TD*%
%TO.C,*%
X145208750Y-99960500D03*
%TD*%
%TO.C,*%
X161474750Y-91770500D03*
%TD*%
%TO.C,*%
X104720250Y-84103000D03*
%TD*%
%TO.C,*%
X142190250Y-95156500D03*
%TD*%
%TO.C,*%
X161474750Y-89738500D03*
%TD*%
%TO.C,*%
X142190250Y-99227000D03*
%TD*%
%TO.C,*%
X123773750Y-76998000D03*
%TD*%
%TO.C,*%
X120276000Y-52250500D03*
%TD*%
D17*
%TO.C,U3*%
X116425000Y-58551000D03*
D18*
X116425000Y-57738000D03*
X116425000Y-57238000D03*
X116425000Y-56738000D03*
X116425000Y-56238000D03*
D17*
X116425000Y-55425000D03*
X115925000Y-55425000D03*
X115425000Y-55425000D03*
X114925000Y-55425000D03*
X114425000Y-55425000D03*
X113925000Y-55425000D03*
X113425000Y-55425000D03*
X112925000Y-55425000D03*
X112425000Y-55425000D03*
X111925000Y-55425000D03*
D18*
X111925000Y-56238000D03*
X111925000Y-56738000D03*
X111925000Y-57238000D03*
X111925000Y-57738000D03*
D17*
X111925000Y-58551000D03*
X112425000Y-58551000D03*
X112925000Y-58551000D03*
X113425000Y-58551000D03*
X113925000Y-58551000D03*
X114425000Y-58551000D03*
X114925000Y-58551000D03*
X115425000Y-58551000D03*
X115925000Y-58551000D03*
%TD*%
D10*
%TO.C,*%
X130834250Y-73717000D03*
%TD*%
%TO.C,*%
X126720250Y-65906500D03*
%TD*%
%TO.C,*%
X142190250Y-93124500D03*
%TD*%
%TO.C,*%
X125677750Y-110780000D03*
%TD*%
%TO.C,*%
X110108500Y-52250500D03*
%TD*%
%TO.C,*%
X153318750Y-68978000D03*
%TD*%
%TO.C,*%
X104720250Y-106462500D03*
%TD*%
%TO.C,*%
X124697750Y-65906500D03*
%TD*%
%TO.C,*%
X137322750Y-62309500D03*
%TD*%
%TO.C,*%
X104720250Y-102400000D03*
%TD*%
%TO.C,*%
X122982250Y-71871500D03*
%TD*%
%TO.C,*%
X161474750Y-83635000D03*
%TD*%
%TO.C,*%
X145208750Y-97927000D03*
%TD*%
%TO.C,*%
X161474750Y-87705000D03*
%TD*%
%TO.C,*%
X142190250Y-101260500D03*
%TD*%
%TO.C,*%
X116210500Y-52250500D03*
%TD*%
%TO.C,*%
X145208750Y-93864500D03*
%TD*%
%TO.C,*%
X134572250Y-67748000D03*
%TD*%
%TO.C,*%
X149248250Y-68978000D03*
%TD*%
%TO.C,*%
X104720250Y-90199000D03*
%TD*%
%TO.C,*%
X143151250Y-68978000D03*
%TD*%
%TO.C,*%
X145208750Y-91831500D03*
%TD*%
%TO.C,*%
X115509750Y-110780000D03*
%TD*%
D19*
%TO.C,U2*%
X133095250Y-55729500D03*
X133745250Y-55729500D03*
X134395250Y-55729500D03*
X135045250Y-55729500D03*
X135045250Y-58246500D03*
X134395250Y-58246500D03*
X133745250Y-58246500D03*
X133095250Y-58246500D03*
%TD*%
D10*
%TO.C,*%
X108075000Y-52250500D03*
%TD*%
%TO.C,*%
X161474750Y-77537500D03*
%TD*%
%TO.C,*%
X135349750Y-52416000D03*
%TD*%
%TO.C,*%
X145208750Y-95895000D03*
%TD*%
%TO.C,*%
X104269000Y-56103500D03*
%TD*%
%TO.C,*%
X161474750Y-79569500D03*
%TD*%
%TO.C,*%
X105482750Y-76995500D03*
%TD*%
%TO.C,*%
X161474750Y-101931500D03*
%TD*%
%TO.C,*%
X126107500Y-56103500D03*
%TD*%
%TO.C,*%
X147216250Y-68978000D03*
%TD*%
%TO.C,*%
X124729250Y-73717000D03*
%TD*%
%TO.C,*%
X121740750Y-76998000D03*
%TD*%
%TO.C,*%
X134572250Y-69784000D03*
%TD*%
%TO.C,*%
X130793750Y-65906500D03*
%TD*%
%TO.C,*%
X104720250Y-98335000D03*
%TD*%
%TO.C,*%
X133263250Y-62309500D03*
%TD*%
%TO.C,*%
X127710750Y-110780000D03*
%TD*%
%TO.C,*%
X104720250Y-96301500D03*
%TD*%
%TO.C,*%
X112140500Y-52250500D03*
%TD*%
%TO.C,*%
X142190250Y-105323000D03*
%TD*%
%TO.C,*%
X120269000Y-62004500D03*
%TD*%
%TO.C,*%
X128757250Y-65906500D03*
%TD*%
%TO.C,*%
X108068000Y-62004500D03*
%TD*%
%TO.C,*%
X131226750Y-62309500D03*
%TD*%
%TO.C,*%
X133312750Y-52416000D03*
%TD*%
%TO.C,*%
X121607250Y-110780000D03*
%TD*%
%TO.C,*%
X145208750Y-75567500D03*
%TD*%
%TO.C,*%
X131901250Y-76998000D03*
%TD*%
%TO.C,*%
X126761250Y-73717000D03*
%TD*%
%TO.C,*%
X122306500Y-52250500D03*
%TD*%
%TO.C,*%
X161474750Y-93803500D03*
%TD*%
%TO.C,*%
X131775750Y-110780000D03*
%TD*%
%TO.C,*%
X161474750Y-85673000D03*
%TD*%
%TO.C,*%
X145208750Y-83695500D03*
%TD*%
%TO.C,*%
X109419750Y-110777500D03*
%TD*%
%TO.C,*%
X161474750Y-75507000D03*
%TD*%
M02*
