M48
; DRILL file {KiCad 9.0.3} date 2026-01-16T17:31:21-0700
; FORMAT={-:-/ absolute / metric / decimal}
; #@! TF.CreationDate,2026-01-16T17:31:21-07:00
; #@! TF.GenerationSoftware,Kicad,Pcbnew,9.0.3
; #@! TF.FileFunction,MixedPlating,1,2
FMAT,2
METRIC
; #@! TA.AperFunction,Plated,PTH,ComponentDrill
T1C0.914
%
G90
G05
T1
X104.269Y-54.067
X104.269Y-56.103
X104.269Y-58.14
X104.269Y-60.163
X104.72Y-84.103
X104.72Y-86.134
X104.72Y-88.166
X104.72Y-90.199
X104.72Y-92.231
X104.72Y-94.269
X104.72Y-96.301
X104.72Y-98.335
X104.72Y-100.367
X104.72Y-102.4
X104.72Y-104.43
X104.72Y-106.462
X104.72Y-108.496
X104.72Y-110.528
X104.723Y-80.043
X104.723Y-82.075
X105.483Y-76.995
X106.036Y-62.005
X106.043Y-52.25
X107.515Y-76.995
X108.068Y-62.005
X108.075Y-52.25
X109.42Y-110.777
X109.542Y-76.998
X110.102Y-62.005
X110.108Y-52.25
X111.452Y-110.777
X111.573Y-76.998
X112.133Y-62.005
X112.14Y-52.25
X113.479Y-110.78
X113.605Y-76.998
X114.172Y-62.005
X114.178Y-52.25
X115.51Y-110.78
X115.638Y-76.998
X116.204Y-62.005
X116.21Y-52.25
X117.542Y-110.78
X117.67Y-76.998
X118.237Y-62.005
X118.244Y-52.25
X119.575Y-110.78
X119.709Y-76.998
X120.269Y-62.005
X120.276Y-52.25
X121.607Y-110.78
X121.741Y-76.998
X122.3Y-62.005
X122.306Y-52.25
X122.982Y-67.812
X122.982Y-69.834
X122.982Y-71.871
X123.646Y-110.78
X123.774Y-76.998
X124.346Y-62.005
X124.353Y-52.25
X124.698Y-65.906
X124.729Y-73.717
X125.678Y-110.78
X125.806Y-76.998
X126.107Y-54.067
X126.107Y-56.103
X126.107Y-58.14
X126.107Y-60.163
X126.72Y-65.906
X126.761Y-73.717
X127.711Y-110.78
X127.839Y-76.998
X128.757Y-65.906
X128.797Y-73.717
X129.743Y-110.78
X129.869Y-76.998
X130.794Y-65.906
X130.834Y-73.717
X131.227Y-62.309
X131.276Y-52.416
X131.776Y-110.78
X131.901Y-76.998
X132.826Y-65.906
X132.857Y-73.717
X133.263Y-62.309
X133.313Y-52.416
X133.806Y-110.78
X133.935Y-76.998
X134.572Y-67.748
X134.572Y-69.784
X134.572Y-71.822
X135.3Y-62.309
X135.35Y-52.416
X135.838Y-110.78
X135.967Y-76.998
X137.323Y-62.309
X137.372Y-52.416
X137.872Y-110.78
X139.904Y-110.78
X142.188Y-107.35
X142.188Y-109.382
X142.19Y-78.898
X142.19Y-80.93
X142.19Y-82.964
X142.19Y-84.996
X142.19Y-87.026
X142.19Y-89.059
X142.19Y-91.091
X142.19Y-93.124
X142.19Y-95.156
X142.19Y-97.195
X142.19Y-99.227
X142.19Y-101.26
X142.19Y-103.292
X142.19Y-105.323
X143.151Y-68.978
X143.155Y-52.106
X145.183Y-68.978
X145.187Y-52.106
X145.209Y-75.567
X145.209Y-77.599
X145.209Y-79.63
X145.209Y-81.663
X145.209Y-83.695
X145.209Y-85.734
X145.209Y-87.766
X145.209Y-89.799
X145.209Y-91.831
X145.209Y-93.864
X145.209Y-95.895
X145.209Y-97.927
X145.209Y-99.96
X145.209Y-101.992
X147.216Y-68.978
X147.22Y-52.106
X149.248Y-68.978
X149.252Y-52.106
X151.287Y-68.978
X151.291Y-52.106
X153.319Y-68.978
X153.323Y-52.106
X155.352Y-68.978
X155.356Y-52.106
X157.384Y-68.978
X157.388Y-52.106
X159.415Y-68.978
X159.419Y-52.106
X161.475Y-75.507
X161.475Y-77.537
X161.475Y-79.569
X161.475Y-81.603
X161.475Y-83.635
X161.475Y-85.673
X161.475Y-87.705
X161.475Y-89.739
X161.475Y-91.77
X161.475Y-93.803
X161.475Y-95.834
X161.475Y-97.866
X161.475Y-99.899
X161.475Y-101.931
M30
